# xmcd
#
# Track frame offsets:
#	150
#	18410
#	36805
#	58955
#	73380
#	91732
#	108747
#	126957
#	147725
#	168652
#	186967
#	205922
#	224260
#	246490
#
# Disc length: 3544 seconds
#
# Revision: 35
# Processed by: cddbd v1.5.2PL0 Copyright (c) Steve Scherf et al.
# Submitted via: audiograbber 1.83.01
#
DISCID=e60dd60e
DTITLE=Ricky Martin - Ricky Martin
DYEAR=1999
DGENRE=Latin Pop
TTITLE0=Ricky Martin - Livin' La Vida Loca
TTITLE1=Ricky Martin - Spanish Eyes
TTITLE2=Ricky Martin - She's All I Ever Had
TTITLE3=Ricky Martin - Shake Your Bon-Bon
TTITLE4=Ricky Martin and Madonna - Be Careful (Cuidado Con Mi Corazón)
TTITLE5=Ricky Martin - Love You For A Day
TTITLE6=Ricky Martin and Meja - Private Emotion
TTITLE7=Ricky Martin - I'm On My Way
TTITLE8=Ricky Martin - I Am Made Of You
TTITLE9=Ricky Martin - La Diosa Del Carnaval (Spanish Eyes)
TTITLE10=Ricky Martin - You Stay With Me
TTITLE11=Ricky Martin - Livin' La Vida Loca (Spanish Version)
TTITLE12=Ricky Martin - Bella (She's All I Ever Had)
TTITLE13=Ricky Martin - I Count The Minutes
EXTD=
EXTT0=
EXTT1=
EXTT2=
EXTT3=
EXTT4=
EXTT5=
EXTT6=
EXTT7=
EXTT8=
EXTT9=
EXTT10=
EXTT11=
EXTT12=
EXTT13=
PLAYORDER=
